<?xml version="1.0" standalone="no"?>
<!DOCTYPE svg PUBLIC "-//W3C//DTD SVG 20010904//EN"
 "http://www.w3.org/TR/2001/REC-SVG-20010904/DTD/svg10.dtd">
<svg version="1.0" xmlns="http://www.w3.org/2000/svg"
 width="1258.000000pt" height="1280.000000pt" viewBox="0 0 1258.000000 1280.000000"
 preserveAspectRatio="xMidYMid meet">
<g transform="translate(0.000000,1280.000000) scale(0.100000,-0.100000)"
fill="#000000" stroke="none">
<path d="M10431 12778 c-5 -13 -39 -99 -76 -193 -36 -93 -79 -190 -95 -213
-16 -24 -57 -128 -91 -230 -34 -103 -155 -424 -269 -714 -196 -498 -210 -530
-256 -582 -158 -176 -331 -375 -410 -471 -863 -1047 -1379 -2146 -1553 -3305
-51 -339 -55 -411 -57 -935 l-1 -500 -181 -458 c-100 -252 -185 -464 -189
-472 -7 -11 -125 49 -528 266 -549 296 -1163 606 -1455 734 -999 439 -1917
685 -3005 805 -277 30 -710 60 -871 60 -107 0 -114 -1 -143 -26 -44 -37 -51
-53 -67 -163 -48 -312 -68 -785 -45 -1042 45 -501 153 -894 360 -1309 37 -74
86 -166 109 -204 23 -37 42 -71 42 -75 0 -4 -35 -16 -78 -25 -42 -10 -153 -43
-245 -72 -576 -185 -877 -356 -1076 -614 -112 -145 -188 -316 -233 -525 -19
-93 -16 -378 6 -505 41 -235 165 -563 308 -813 246 -435 548 -730 941 -922
280 -137 572 -210 1007 -252 169 -16 320 -18 1755 -17 864 1 1905 7 2315 14
410 7 1573 14 2585 16 1162 2 1892 7 1980 14 368 28 555 77 898 236 88 41 205
90 259 109 124 43 135 49 158 88 40 65 14 159 -53 190 -22 10 -98 18 -252 26
-527 28 -959 69 -1274 123 l-63 10 98 52 c651 341 1038 1067 1071 2005 9 266
19 257 -336 316 -1382 232 -2511 616 -3836 1307 -148 77 -274 144 -278 148 -7
6 304 818 332 868 4 7 15 -51 25 -130 17 -137 45 -314 67 -426 6 -29 21 -65
35 -81 27 -33 13 -27 669 -271 253 -95 611 -228 795 -297 184 -69 466 -174
625 -233 160 -59 441 -164 625 -233 184 -69 541 -202 793 -296 252 -94 473
-171 490 -171 70 0 127 63 127 138 0 33 -17 65 -104 198 -859 1319 -1287 2821
-1466 5149 -48 628 -123 2096 -107 2111 3 3 220 -2 484 -10 1106 -37 1597 -44
1683 -25 25 6 70 14 100 18 113 17 126 36 57 80 -27 18 -37 31 -37 50 0 46
-35 87 -112 132 -223 130 -541 318 -1218 723 -473 282 -767 452 -787 454 -18
2 -33 7 -33 10 0 3 30 81 66 173 36 93 64 176 62 186 -5 27 -36 28 -47 1z m22
-714 c13 -4 11 -15 -7 -67 -13 -34 -74 -214 -136 -399 -93 -277 -117 -338
-132 -338 -10 0 -18 2 -18 3 0 4 166 497 230 685 23 67 44 122 45 122 2 0 10
-3 18 -6z m-625 -1023 c-34 -44 -38 -38 -14 23 19 50 22 52 29 30 7 -18 3 -31
-15 -53z m-1183 -6026 c452 -64 937 -256 1635 -645 195 -109 648 -376 665
-392 6 -5 -21 3 -60 17 -38 15 -92 35 -120 45 -27 10 -239 89 -470 175 -231
86 -514 192 -630 235 -115 43 -417 155 -670 250 -253 94 -547 204 -653 243
-159 60 -188 73 -165 78 54 13 368 9 468 -6z"/>
<path d="M9675 12619 c-60 -16 -180 -47 -265 -70 -1437 -378 -2729 -898 -3795
-1527 -1585 -936 -2802 -2174 -3669 -3732 -90 -162 -102 -203 -73 -259 26 -51
-34 -27 1002 -396 242 -86 603 -215 803 -286 199 -71 526 -187 727 -259 201
-72 528 -188 728 -259 199 -71 560 -200 802 -286 242 -86 585 -208 761 -271
177 -63 337 -117 356 -121 46 -7 104 20 129 60 21 35 15 1 79 477 196 1454
373 2334 641 3190 412 1316 1037 2430 1921 3427 60 67 115 134 123 150 34 64
7 146 -58 176 -47 23 -83 20 -212 -14z m-6775 -5565 c1081 -91 2130 -474 3280
-1197 198 -125 368 -237 358 -237 -3 0 -100 33 -215 74 -114 41 -437 156 -718
256 -280 100 -706 252 -945 337 -239 85 -598 213 -797 284 -200 71 -528 188
-730 260 -203 72 -437 155 -522 185 -85 30 -157 57 -160 60 -8 8 236 -4 449
-22z"/>
</g>
</svg>
