<?xml version="1.0" encoding="UTF-8" standalone="no"?>
<!-- Generator: Adobe Illustrator 16.0.0, SVG Export Plug-In . SVG Version: 6.00 Build 0)  -->

<svg
   xmlns:dc="http://purl.org/dc/elements/1.1/"
   xmlns:cc="http://creativecommons.org/ns#"
   xmlns:rdf="http://www.w3.org/1999/02/22-rdf-syntax-ns#"
   xmlns:svg="http://www.w3.org/2000/svg"
   xmlns="http://www.w3.org/2000/svg"
   xmlns:sodipodi="http://sodipodi.sourceforge.net/DTD/sodipodi-0.dtd"
   xmlns:inkscape="http://www.inkscape.org/namespaces/inkscape"
   version="1.1"
   id="Capa_1"
   x="0px"
   y="0px"
   width="512px"
   height="512px"
   viewBox="0 0 612 612"
   style="enable-background:new 0 0 612 612;"
   xml:space="preserve"
   sodipodi:docname="ocean-transportation copy.svg"
   inkscape:version="0.92.2 5c3e80d, 2017-08-06"><metadata
     id="metadata41"><rdf:RDF><cc:Work
         rdf:about=""><dc:format>image/svg+xml</dc:format><dc:type
           rdf:resource="http://purl.org/dc/dcmitype/StillImage" /></cc:Work></rdf:RDF></metadata><defs
     id="defs39" /><sodipodi:namedview
     pagecolor="#ffffff"
     bordercolor="#666666"
     borderopacity="1"
     objecttolerance="10"
     gridtolerance="10"
     guidetolerance="10"
     inkscape:pageopacity="0"
     inkscape:pageshadow="2"
     inkscape:window-width="980"
     inkscape:window-height="711"
     id="namedview37"
     showgrid="false"
     inkscape:zoom="0.4609375"
     inkscape:cx="256"
     inkscape:cy="256"
     inkscape:window-x="0"
     inkscape:window-y="0"
     inkscape:window-maximized="0"
     inkscape:current-layer="Capa_1" /><g
     id="g4"
     transform="matrix(-1,0,0,1,611.99983,0)"><path
       d="m 202.302,353.148 c -46.343,23.113 -90.541,45.085 -146.523,61.376 V 305.988 c 0,-8.448 4.182,-16.346 11.166,-21.096 l 41.807,-28.428 c 3.571,-2.428 10.026,-4.415 14.344,-4.415 h 67.119 v -39.534 h 75.523 v 39.534 h 57.871 c 9.393,0 17.006,7.614 17.006,17.006 v 23.501 c -53.202,18.167 -96.082,39.535 -138.313,60.592 z M 190.215,173.476 v 20.514 h 75.523 v -20.514 c 0,-10.51 -8.52,-19.029 -19.029,-19.029 h -37.467 c -10.508,0 -19.027,8.519 -19.027,19.029 z m -43.863,-59.811 c 5.434,0 10.604,-1.118 15.307,-3.122 5.336,7.391 13.97,12.248 23.782,12.248 3.202,0 6.228,-0.64 9.113,-1.587 -0.046,0.532 -0.16,1.044 -0.16,1.587 0,10.061 8.155,18.215 18.215,18.215 10.06,0 18.215,-8.155 18.215,-18.215 0,-10.06 -8.155,-18.215 -18.215,-18.215 -0.004,0 -0.008,0.001 -0.012,0.001 1.419,-3.447 2.226,-7.211 2.226,-11.169 0,-16.228 -13.155,-29.384 -29.383,-29.384 -0.54,0 -1.043,0.13 -1.575,0.159 -4.575,-16.508 -19.549,-28.695 -37.513,-28.695 -21.588,0 -39.088,17.5 -39.088,39.088 0,21.588 17.5,39.089 39.088,39.089 z m 382.602,382.6 c -3.778,5.754 -3.881,13.155 -0.061,18.881 l 22.525,33.761 c 8.232,12.31 -1.351,28.69 -16.114,27.549 L 34.419,537.106 C 20.793,536.036 9.403,526.455 5.93,513.234 2.893,501.669 0,487.318 0,474.604 0,448.456 10.511,443.577 32.011,438.447 224.274,392.569 277.156,281.985 597.959,263.881 c 8.333,-0.47 15.035,6.81 13.919,15.081 -9.506,70.423 -43.084,156.639 -82.924,217.303 z m -24.48,-82.651 c 0,-4.7 -3.804,-8.504 -8.504,-8.504 -4.7,0 -8.503,3.804 -8.503,8.504 0,13.133 -8.766,24.136 -20.711,27.803 v -58.622 c 6.393,-3.17 10.827,-9.696 10.827,-17.314 0,-10.707 -8.68,-19.387 -19.387,-19.387 -10.706,0 -19.386,8.68 -19.386,19.387 0,7.663 4.484,14.226 10.938,17.373 v 58.563 c -11.945,-3.667 -20.711,-14.67 -20.711,-27.803 0,-4.7 -3.804,-8.504 -8.504,-8.504 -4.7,0 -8.504,3.804 -8.504,8.504 0,25.485 20.735,46.221 46.221,46.221 25.488,0 46.224,-20.735 46.224,-46.221 z"
       id="path2"
       inkscape:connector-curvature="0"
       style="fill:#933ec5" /></g><g
     id="g6" /><g
     id="g8" /><g
     id="g10" /><g
     id="g12" /><g
     id="g14" /><g
     id="g16" /><g
     id="g18" /><g
     id="g20" /><g
     id="g22" /><g
     id="g24" /><g
     id="g26" /><g
     id="g28" /><g
     id="g30" /><g
     id="g32" /><g
     id="g34" /></svg>