<?xml version="1.0" encoding="iso-8859-1"?>
<!-- Generator: Adobe Illustrator 19.0.0, SVG Export Plug-In . SVG Version: 6.00 Build 0)  -->
<svg xmlns="http://www.w3.org/2000/svg" xmlns:xlink="http://www.w3.org/1999/xlink" version="1.1" id="Capa_1" x="0px" y="0px" viewBox="0 0 472.903 472.903" style="enable-background:new 0 0 472.903 472.903;" xml:space="preserve" width="512px" height="512px">
<g>
	<g>
		<g>
			<path d="M318.628,182.599c5.314-2.555,8.697-7.927,8.704-13.824V83.783c-0.066-1.039-0.238-2.068-0.512-3.072l-1.024-2.56v-1.024     l-1.024-2.048v-1.024l-1.536-1.536l-76.8-68.608c-5.831-5.215-14.649-5.215-20.48,0L150.18,72.007l-1.536,1.536v1.024     l-1.024,2.048v1.024l-1.024,2.56c-0.274,1.004-0.446,2.033-0.512,3.072v86.016c0.007,5.897,3.39,11.269,8.704,13.824     l-17.92,259.072H97.956v30.72h276.48v-30.72h-38.912L318.628,182.599z M251.556,99.143h45.056v54.784h-45.056V99.143z      M175.78,99.143h45.056v54.784H175.78V99.143z M176.804,294.727l113.152-78.336l3.584,54.784l-120.32,83.456L176.804,294.727z      M237.732,442.183l64.512-45.056l3.072,45.056H237.732z" fill="#ffb545"/>
			<rect x="375.46" y="115.015" width="90.624" height="30.72" fill="#ffb545"/>
			
				<rect x="390.128" y="8.194" transform="matrix(0.3939 0.9191 -0.9191 0.3939 297.2832 -338.719)" width="30.72" height="95.744" fill="#ffb545"/>
			
				<rect x="357.292" y="189.684" transform="matrix(-0.9191 -0.3939 0.3939 -0.9191 696.7422 553.1068)" width="95.693" height="30.72" fill="#ffb545"/>
			<rect x="6.82" y="115.015" width="90.624" height="30.72" fill="#ffb545"/>
			<rect x="19.602" y="40.891" transform="matrix(0.9191 0.3939 -0.3939 0.9191 27.6137 -22.022)" width="95.693" height="30.72" fill="#ffb545"/>
			
				<rect x="19.496" y="188.957" transform="matrix(0.9191 -0.3939 0.3939 0.9191 -75.0405 43.0606)" width="95.744" height="30.72" fill="#ffb545"/>
		</g>
	</g>
</g>
<g>
</g>
<g>
</g>
<g>
</g>
<g>
</g>
<g>
</g>
<g>
</g>
<g>
</g>
<g>
</g>
<g>
</g>
<g>
</g>
<g>
</g>
<g>
</g>
<g>
</g>
<g>
</g>
<g>
</g>
</svg>
